<?xml version="1.0" encoding="iso-8859-1"?>
<!-- Generator: Adobe Illustrator 19.0.0, SVG Export Plug-In . SVG Version: 6.00 Build 0)  -->
<svg version="1.1" id="Capa_1" xmlns="http://www.w3.org/2000/svg" xmlns:xlink="http://www.w3.org/1999/xlink" x="0px" y="0px"
	 viewBox="0 0 512 512" style="enable-background:new 0 0 512 512;" xml:space="preserve">
<path style="fill:#FFCD38;" d="M13.138,265.032c10.878-5.119,28.404-15.356,37.742-31.398C19.352,210.015,0,178.053,0,142.868
	C0,70.145,82.669,11.191,184.646,11.191s184.646,58.954,184.646,131.678s-82.669,131.678-184.646,131.678
	c-27.903,0-54.353-4.423-78.067-12.324c-11.262,8.743-43.426,27.891-93.052,10.586C9.979,271.571,9.739,266.632,13.138,265.032z"/>
<g>
	<path style="fill:#3A484A;" d="M239.487,152.909c-4.267,0-7.726-3.459-7.726-7.726v-9.926c0-4.267,3.459-7.726,7.726-7.726
		s7.726,3.459,7.726,7.726v9.926C247.214,149.449,243.754,152.909,239.487,152.909z"/>
	<path style="fill:#3A484A;" d="M129.804,152.909c-4.267,0-7.726-3.459-7.726-7.726v-9.926c0-4.267,3.459-7.726,7.726-7.726
		s7.726,3.459,7.726,7.726v9.926C137.53,149.449,134.071,152.909,129.804,152.909z"/>
	<path style="fill:#3A484A;" d="M184.646,158.207c-7.505,0-14.559-3.145-19.353-8.63c-2.808-3.213-2.481-8.094,0.732-10.902
		c3.213-2.808,8.094-2.481,10.902,0.732c1.859,2.127,4.673,3.347,7.719,3.347s5.86-1.22,7.718-3.347
		c2.809-3.213,7.689-3.54,10.902-0.732c3.213,2.808,3.541,7.689,0.732,10.902C199.204,155.061,192.15,158.207,184.646,158.207z"/>
</g>
<path style="fill:#E7B835;" d="M348.687,120.351c0-19.235-5.073-37.623-14.302-54.53c21.956,21.664,34.906,48.275,34.906,77.048
	c0,72.724-82.669,131.677-184.646,131.677c-15.319,0-30.195-1.34-44.424-3.85C255.57,269.782,348.687,202.827,348.687,120.351z"/>
<path style="fill:#49C3E0;" d="M498.862,486.033c-10.878-5.119-28.404-15.356-37.742-31.398
	c31.528-23.621,50.88-55.582,50.88-90.767c0-72.724-82.669-131.678-184.646-131.678s-184.646,58.954-184.646,131.678
	s82.669,131.678,184.646,131.678c27.903,0,54.353-4.423,78.067-12.324c11.262,8.743,43.426,27.891,93.052,10.586
	C502.021,492.571,502.261,487.632,498.862,486.033z"/>
<path style="fill:#00A5C6;" d="M163.314,341.35c0-19.234,5.073-37.623,14.302-54.53c-21.956,21.664-34.906,48.275-34.906,77.048
	c0,72.724,82.669,131.677,184.646,131.677c15.319,0,30.195-1.34,44.424-3.85C256.43,490.782,163.314,423.827,163.314,341.35z"/>
<g>
	<path style="fill:#3A484A;" d="M272.513,373.908c-4.267,0-7.726-3.459-7.726-7.726v-9.926c0-4.267,3.459-7.726,7.726-7.726
		s7.726,3.459,7.726,7.726v9.926C280.239,370.449,276.78,373.908,272.513,373.908z"/>
	<path style="fill:#3A484A;" d="M382.196,373.908c-4.267,0-7.726-3.459-7.726-7.726v-9.926c0-4.267,3.459-7.726,7.726-7.726
		s7.726,3.459,7.726,7.726v9.926C389.922,370.449,386.463,373.908,382.196,373.908z"/>
	<path style="fill:#3A484A;" d="M327.354,379.206c-7.505,0-14.559-3.145-19.353-8.63c-2.808-3.213-2.481-8.094,0.732-10.902
		c3.213-2.808,8.094-2.481,10.902,0.732c1.859,2.127,4.673,3.347,7.718,3.347s5.86-1.22,7.719-3.347
		c2.808-3.213,7.688-3.541,10.902-0.732c3.213,2.808,3.541,7.689,0.732,10.902C341.913,376.061,334.859,379.206,327.354,379.206z"/>
</g>
<g>
</g>
<g>
</g>
<g>
</g>
<g>
</g>
<g>
</g>
<g>
</g>
<g>
</g>
<g>
</g>
<g>
</g>
<g>
</g>
<g>
</g>
<g>
</g>
<g>
</g>
<g>
</g>
<g>
</g>
</svg>
